# xmcd CD database file
#
# Track frame offsets:
#	150
#	21190
#	42120
#	54945
#	79697
#	98822
#	125597
#	142627
#	169255
#	189190
#	210277
#	233740
#	263057
#
# Disc length: 3611 seconds
#
# Revision: 4
# Processed by: cddbd v1.5.2PL0 Copyright (c) Steve Scherf et al.
# Submitted via: CDex 1.70beta3
#
DISCID=990e190d
DTITLE=堂本剛 - ROSSO E AZZURRO
DYEAR=2002
DGENRE=J-POP(J)
TTITLE0=さよならアンジェリーナ
TTITLE1=Purity
TTITLE2=GIRASOLE
TTITLE3=歩き出した夏
TTITLE4=We never know
TTITLE5=街
TTITLE6=花
TTITLE7=Panic Disorder
TTITLE8=溺愛ロジック(New Mix)
TTITLE9=Luna
TTITLE10=あなた
TTITLE11=心の恋人
TTITLE12=Hey!みんな元気かい? (BONUS TRACK)
EXTD=YEAR: 2002
EXTT0=
EXTT1=
EXTT2=
EXTT3=
EXTT4=
EXTT5=
EXTT6=
EXTT7=
EXTT8=
EXTT9=
EXTT10=
EXTT11=
EXTT12=
PLAYORDER=
